G04 ================== begin FILE IDENTIFICATION RECORD ==================*
G04 Layout Name:  C:/Users/abcd/Documents/GitHub/sophum_imu/PCB/sophum_imu.brd*
G04 Film Name:    BOTTOM*
G04 File Format:  Gerber RS274X*
G04 File Origin:  Cadence Allegro 16.6-2015-S066*
G04 Origin Date:  Fri Aug 30 18:03:44 2019*
G04 *
G04 Layer:  VIA CLASS/BOTTOM*
G04 Layer:  PIN/BOTTOM*
G04 Layer:  ETCH/BOTTOM*
G04 Layer:  BOARD GEOMETRY/OUTLINE*
G04 *
G04 Offset:    (0.00 0.00)*
G04 Mirror:    No*
G04 Mode:      Positive*
G04 Rotation:  0*
G04 FullContactRelief:  No*
G04 UndefLineWidth:     6.00*
G04 ================== end FILE IDENTIFICATION RECORD ====================*
%FSLAX55Y55*MOIN*%
%IR0*IPPOS*OFA0.00000B0.00000*MIA0B0*SFA1.00000B1.00000*%
%ADD12C,.02165*%
%ADD11C,.06299*%
%ADD10R,.06299X.06299*%
%ADD13C,.02*%
%ADD14C,.006*%
%ADD16C,.07302*%
%ADD15C,.07502*%
G75*
%LPD*%
G75*
G36*
G01X2004Y2004D02*
Y17555D01*
G02X2687Y17838I400J0D01*
G01X4327Y16198D01*
X32178D01*
G03Y18002I1422J902D01*
G01X5073D01*
X3602Y19473D01*
Y21249D01*
X11251D01*
Y27476D01*
X25533Y41758D01*
X37591D01*
G03X39914Y44082I1422J901D01*
G01Y53615D01*
X34629Y58900D01*
X33794D01*
G03X31457Y56585I-1422J-901D01*
G02X31424Y55895I-218J-335D01*
G03X30778Y55302I777J-1494D01*
G01X26527D01*
X9439Y38214D01*
X9308Y38287D01*
G03X4213Y33192I-1808J-3287D01*
G01X4286Y33061D01*
X2687Y31462D01*
G02X2004Y31745I-283J283D01*
G01Y77996D01*
X77996D01*
Y2004D01*
X2004D01*
G37*
%LPC*%
G75*
G36*
G01X69386Y56939D02*
X59743Y66582D01*
X42406D01*
G02Y68386I-1422J902D01*
G01X60489D01*
X70663Y58212D01*
G02X69313Y56808I1936J-3213D01*
G01X69386Y56939D01*
G37*
G36*
G01X66230Y29904D02*
X69386Y33061D01*
X69313Y33192D01*
G02X70792Y31713I3287J1808D01*
G01X70661Y31786D01*
X66976Y28102D01*
X42108D01*
X41355Y28854D01*
X41254Y28838D01*
G02X42646Y30230I-270J1662D01*
G01X42630Y30129D01*
X42854Y29904D01*
X66230D01*
G37*
G36*
G01X55427Y9102D02*
X68849Y22524D01*
Y28751D01*
X76351D01*
Y21249D01*
X70124D01*
X56173Y7298D01*
X53227D01*
X47227Y13298D01*
X45322D01*
G02Y15102I-1422J902D01*
G01X47973D01*
X53973Y9102D01*
X55427D01*
G37*
G54D16*
X7500Y45000D03*
G54D15*
Y55000D03*
X72600Y45000D03*
%LPD*%
G75*
G54D10*
X7500Y25000D03*
X72600D03*
G54D11*
X7500Y55000D03*
Y45000D03*
Y35000D03*
X72600Y55000D03*
Y45000D03*
Y35000D03*
G54D12*
X21400Y30686D03*
X33600Y17100D03*
X43900Y14200D03*
X54386Y10986D03*
X33606Y20412D03*
X32200Y54400D03*
X39013Y42660D03*
X32372Y57999D03*
X40984Y67484D03*
X54386Y53186D03*
Y30986D03*
X32028Y61628D03*
X36544Y30400D03*
X40984Y30500D03*
G54D13*
G01X7500Y45000D02*
Y48900D01*
G01Y45000D02*
X11400D01*
G01X7500D02*
Y41100D01*
G01Y45000D02*
X3600D01*
G54D14*
G01X0Y0D02*
Y80000D01*
X80000D01*
Y0D01*
X0D01*
G01X33600Y17100D02*
X4700D01*
X2700Y19100D01*
Y30200D01*
X7500Y35000D01*
G01X32200Y54400D02*
X26900D01*
X7500Y35000D01*
G01X39013Y42660D02*
X25160D01*
X7500Y25000D01*
G01X43900Y14200D02*
X47600D01*
X53600Y8200D01*
X55800D01*
X72600Y25000D01*
G01X32372Y57999D02*
X34256D01*
X39013Y53242D01*
Y42660D01*
G01X40984Y67484D02*
X60116D01*
X72600Y55000D01*
G01X40984Y30500D02*
X42481Y29003D01*
X66603D01*
X72600Y35000D01*
M02*
