G04 ================== begin FILE IDENTIFICATION RECORD ==================*
G04 Layout Name:  C:/Users/abcd/Documents/GitHub/sophum_imu/PCB/sophum_imu.brd*
G04 Film Name:    SILKTOP*
G04 File Format:  Gerber RS274X*
G04 File Origin:  Cadence Allegro 16.6-2015-S066*
G04 Origin Date:  Fri Aug 30 19:15:02 2019*
G04 *
G04 Layer:  REF DES/SILKSCREEN_TOP*
G04 Layer:  PACKAGE GEOMETRY/SILKSCREEN_TOP*
G04 Layer:  BOARD GEOMETRY/SILKSCREEN_TOP*
G04 Layer:  BOARD GEOMETRY/OUTLINE*
G04 *
G04 Offset:    (0.00 0.00)*
G04 Mirror:    No*
G04 Mode:      Positive*
G04 Rotation:  0*
G04 FullContactRelief:  No*
G04 UndefLineWidth:     6.00*
G04 ================== end FILE IDENTIFICATION RECORD ====================*
%FSLAX55Y55*MOIN*%
%IR0*IPPOS*OFA0.00000B0.00000*MIA0B0*SFA1.00000B1.00000*%
%ADD10C,.006*%
%ADD11C,.00591*%
G75*
%LPD*%
G75*
G54D10*
G01X0Y0D02*
Y80000D01*
X80000D01*
Y0D01*
X0D01*
G01X9075Y17922D02*
X5975D01*
X6595Y17462D01*
G01X9075D02*
Y18382D01*
G01X15367Y17000D02*
Y19500D01*
X16033D01*
X16247Y19375D01*
X16380Y19208D01*
X16433Y18875D01*
X16380Y18542D01*
X16220Y18333D01*
X16033Y18208D01*
X15367D01*
G01X16033D02*
X16433Y17000D01*
G01X18100D02*
Y19500D01*
X17780Y19000D01*
G01Y17000D02*
X18420D01*
G01X5967Y62300D02*
X6100Y62050D01*
X6260Y61883D01*
X6447Y61800D01*
X6660Y61883D01*
X6820Y62050D01*
X6980Y62300D01*
X7033Y62633D01*
Y64300D01*
G01X8700Y61800D02*
Y64300D01*
X8380Y63800D01*
G01Y61800D02*
X9020D01*
G01X14967Y37800D02*
Y40300D01*
X15633D01*
X15847Y40175D01*
X15980Y40008D01*
X16033Y39675D01*
X15980Y39342D01*
X15820Y39133D01*
X15633Y39008D01*
X14967D01*
G01X15633D02*
X16033Y37800D01*
G01X17193Y39883D02*
X17353Y40133D01*
X17540Y40258D01*
X17753Y40300D01*
X18020Y40217D01*
X18207Y40008D01*
X18260Y39758D01*
X18233Y39508D01*
X18127Y39300D01*
X17593Y38883D01*
X17353Y38592D01*
X17193Y38175D01*
X17140Y37800D01*
X18260D01*
G01X46013Y18000D02*
Y16208D01*
X46120Y15833D01*
X46333Y15583D01*
X46600Y15500D01*
X46867Y15583D01*
X47080Y15833D01*
X47187Y16208D01*
Y18000D01*
G01X48293Y17583D02*
X48453Y17833D01*
X48640Y17958D01*
X48853Y18000D01*
X49120Y17917D01*
X49307Y17708D01*
X49360Y17458D01*
X49333Y17208D01*
X49227Y17000D01*
X48693Y16583D01*
X48453Y16292D01*
X48293Y15875D01*
X48240Y15500D01*
X49360D01*
G01X74175Y17922D02*
X71075D01*
X71695Y17462D01*
G01X74175D02*
Y18382D01*
G01X61987Y25092D02*
X61827Y25217D01*
X61640Y25300D01*
X61427D01*
X61187Y25175D01*
X61000Y24967D01*
X60867Y24717D01*
X60760Y24300D01*
X60733Y23925D01*
X60787Y23550D01*
X60867Y23300D01*
X61027Y23050D01*
X61213Y22883D01*
X61400Y22800D01*
X61587D01*
X61773Y22883D01*
X61933Y23008D01*
X62067Y23175D01*
G01X63920Y22800D02*
Y25300D01*
X62933Y23508D01*
X64267D01*
G01X40887Y5592D02*
X40727Y5717D01*
X40540Y5800D01*
X40327D01*
X40087Y5675D01*
X39900Y5467D01*
X39767Y5217D01*
X39660Y4800D01*
X39633Y4425D01*
X39687Y4050D01*
X39767Y3800D01*
X39927Y3550D01*
X40113Y3383D01*
X40300Y3300D01*
X40487D01*
X40673Y3383D01*
X40833Y3508D01*
X40967Y3675D01*
G01X41913Y3800D02*
X42073Y3508D01*
X42287Y3342D01*
X42527Y3300D01*
X42740Y3342D01*
X42953Y3550D01*
X43087Y3800D01*
X43113Y4050D01*
X43060Y4342D01*
X42873Y4550D01*
X42687Y4633D01*
X42447D01*
G01X42687D02*
X42847Y4758D01*
X42980Y4967D01*
X43033Y5217D01*
X42980Y5467D01*
X42847Y5675D01*
X42607Y5800D01*
X42367Y5758D01*
X42127Y5592D01*
G01X62187Y15392D02*
X62027Y15517D01*
X61840Y15600D01*
X61627D01*
X61387Y15475D01*
X61200Y15267D01*
X61067Y15017D01*
X60960Y14600D01*
X60933Y14225D01*
X60987Y13850D01*
X61067Y13600D01*
X61227Y13350D01*
X61413Y13183D01*
X61600Y13100D01*
X61787D01*
X61973Y13183D01*
X62133Y13308D01*
X62267Y13475D01*
G01X63213D02*
X63373Y13267D01*
X63560Y13142D01*
X63800Y13100D01*
X64040Y13183D01*
X64227Y13350D01*
X64360Y13642D01*
X64387Y13975D01*
X64333Y14308D01*
X64200Y14517D01*
X64013Y14683D01*
X63827Y14725D01*
X63640Y14683D01*
X63400Y14517D01*
X63480Y15600D01*
X64200D01*
G01X62187Y20492D02*
X62027Y20617D01*
X61840Y20700D01*
X61627D01*
X61387Y20575D01*
X61200Y20367D01*
X61067Y20117D01*
X60960Y19700D01*
X60933Y19325D01*
X60987Y18950D01*
X61067Y18700D01*
X61227Y18450D01*
X61413Y18283D01*
X61600Y18200D01*
X61787D01*
X61973Y18283D01*
X62133Y18408D01*
X62267Y18575D01*
G01X63293Y19242D02*
X63480Y19533D01*
X63640Y19700D01*
X63853Y19783D01*
X64040Y19700D01*
X64173Y19533D01*
X64280Y19283D01*
X64307Y18992D01*
X64280Y18742D01*
X64173Y18492D01*
X64013Y18283D01*
X63827Y18200D01*
X63613Y18283D01*
X63427Y18533D01*
X63320Y18908D01*
X63293Y19325D01*
X63347Y19867D01*
X63427Y20158D01*
X63560Y20450D01*
X63747Y20658D01*
X63933Y20700D01*
X64120Y20617D01*
X64253Y20408D01*
G01X29513Y51400D02*
Y49608D01*
X29620Y49233D01*
X29833Y48983D01*
X30100Y48900D01*
X30367Y48983D01*
X30580Y49233D01*
X30687Y49608D01*
Y51400D01*
G01X32300Y48900D02*
Y51400D01*
X31980Y50900D01*
G01Y48900D02*
X32620D01*
G01X46213Y32900D02*
Y31108D01*
X46320Y30733D01*
X46533Y30483D01*
X46800Y30400D01*
X47067Y30483D01*
X47280Y30733D01*
X47387Y31108D01*
Y32900D01*
G01X48413Y30900D02*
X48573Y30608D01*
X48787Y30442D01*
X49027Y30400D01*
X49240Y30442D01*
X49453Y30650D01*
X49587Y30900D01*
X49613Y31150D01*
X49560Y31442D01*
X49373Y31650D01*
X49187Y31733D01*
X48947D01*
G01X49187D02*
X49347Y31858D01*
X49480Y32067D01*
X49533Y32317D01*
X49480Y32567D01*
X49347Y32775D01*
X49107Y32900D01*
X48867Y32858D01*
X48627Y32692D01*
G01X71267Y62500D02*
X71400Y62250D01*
X71560Y62083D01*
X71747Y62000D01*
X71960Y62083D01*
X72120Y62250D01*
X72280Y62500D01*
X72333Y62833D01*
Y64500D01*
G01X73493Y64083D02*
X73653Y64333D01*
X73840Y64458D01*
X74053Y64500D01*
X74320Y64417D01*
X74507Y64208D01*
X74560Y63958D01*
X74533Y63708D01*
X74427Y63500D01*
X73893Y63083D01*
X73653Y62792D01*
X73493Y62375D01*
X73440Y62000D01*
X74560D01*
G01X62287Y36192D02*
X62127Y36317D01*
X61940Y36400D01*
X61727D01*
X61487Y36275D01*
X61300Y36067D01*
X61167Y35817D01*
X61060Y35400D01*
X61033Y35025D01*
X61087Y34650D01*
X61167Y34400D01*
X61327Y34150D01*
X61513Y33983D01*
X61700Y33900D01*
X61887D01*
X62073Y33983D01*
X62233Y34108D01*
X62367Y34275D01*
G01X63900Y33900D02*
X64087Y33942D01*
X64300Y34067D01*
X64433Y34275D01*
X64487Y34567D01*
X64433Y34858D01*
X64273Y35108D01*
X64033Y35233D01*
X63767D01*
X63607Y35317D01*
X63473Y35525D01*
X63420Y35817D01*
X63500Y36108D01*
X63687Y36317D01*
X63900Y36400D01*
X64113Y36317D01*
X64300Y36108D01*
X64380Y35817D01*
X64327Y35525D01*
X64193Y35317D01*
X64033Y35233D01*
X63767D01*
X63527Y35108D01*
X63367Y34858D01*
X63313Y34567D01*
X63367Y34275D01*
X63500Y34067D01*
X63713Y33942D01*
X63900Y33900D01*
G01X62387Y40892D02*
X62227Y41017D01*
X62040Y41100D01*
X61827D01*
X61587Y40975D01*
X61400Y40767D01*
X61267Y40517D01*
X61160Y40100D01*
X61133Y39725D01*
X61187Y39350D01*
X61267Y39100D01*
X61427Y38850D01*
X61613Y38683D01*
X61800Y38600D01*
X61987D01*
X62173Y38683D01*
X62333Y38808D01*
X62467Y38975D01*
G01X63947Y38600D02*
X64000Y39142D01*
X64080Y39600D01*
X64187Y40017D01*
X64320Y40475D01*
X64533Y41100D01*
X63467D01*
G01X62187Y62692D02*
X62027Y62817D01*
X61840Y62900D01*
X61627D01*
X61387Y62775D01*
X61200Y62567D01*
X61067Y62317D01*
X60960Y61900D01*
X60933Y61525D01*
X60987Y61150D01*
X61067Y60900D01*
X61227Y60650D01*
X61413Y60483D01*
X61600Y60400D01*
X61787D01*
X61973Y60483D01*
X62133Y60608D01*
X62267Y60775D01*
G01X63293Y62483D02*
X63453Y62733D01*
X63640Y62858D01*
X63853Y62900D01*
X64120Y62817D01*
X64307Y62608D01*
X64360Y62358D01*
X64333Y62108D01*
X64227Y61900D01*
X63693Y61483D01*
X63453Y61192D01*
X63293Y60775D01*
X63240Y60400D01*
X64360D01*
G01X62187Y57992D02*
X62027Y58117D01*
X61840Y58200D01*
X61627D01*
X61387Y58075D01*
X61200Y57867D01*
X61067Y57617D01*
X60960Y57200D01*
X60933Y56825D01*
X60987Y56450D01*
X61067Y56200D01*
X61227Y55950D01*
X61413Y55783D01*
X61600Y55700D01*
X61787D01*
X61973Y55783D01*
X62133Y55908D01*
X62267Y56075D01*
G01X63800Y55700D02*
Y58200D01*
X63480Y57700D01*
G01Y55700D02*
X64120D01*
G54D11*
G01X12421Y20000D02*
Y60000D01*
X2579D01*
Y20000D01*
X12421D01*
G01X18269Y23913D02*
Y21157D01*
X14331D01*
Y23913D01*
G01X18269Y25487D02*
Y28243D01*
X14331D01*
Y25487D01*
G01Y33087D02*
Y35843D01*
X18269D01*
Y33087D01*
G01X14331Y31513D02*
Y28757D01*
X18269D01*
Y31513D01*
G01X34651Y23750D02*
G03I-557J0D01*
G01X35276Y25324D02*
X44724D01*
Y15876D01*
X35276D01*
Y25324D01*
G01X77521Y20000D02*
Y60000D01*
X67679D01*
Y20000D01*
X77521D01*
G01X56787Y25469D02*
X59543D01*
Y21531D01*
X56787D01*
G01X55213Y25469D02*
X52457D01*
Y21531D01*
X55213D01*
G01X42087Y10569D02*
X44843D01*
Y6631D01*
X42087D01*
G01X40513Y10569D02*
X37757D01*
Y6631D01*
X40513D01*
G01X56787Y16469D02*
X59543D01*
Y12531D01*
X56787D01*
G01X55213Y16469D02*
X52457D01*
Y12531D01*
X55213D01*
G01X56787Y20969D02*
X59543D01*
Y17031D01*
X56787D01*
G01X55213Y20969D02*
X52457D01*
Y17031D01*
X55213D01*
G01X34488Y54050D02*
Y51294D01*
X36063D01*
G01X34488Y60350D02*
Y63106D01*
X36063D01*
G01X45512Y60350D02*
Y63106D01*
X43937D01*
G01Y51294D02*
X45512D01*
Y54050D01*
G01X35832Y50113D02*
G03I-556J0D01*
G01X42919Y42006D02*
G03I-557J0D01*
G01X44724Y40824D02*
Y31376D01*
X35276D01*
Y40824D01*
X44724D01*
G01X56787Y36469D02*
X59543D01*
Y32531D01*
X56787D01*
G01X55213Y36469D02*
X52457D01*
Y32531D01*
X55213D01*
G01X56787Y40969D02*
X59543D01*
Y37031D01*
X56787D01*
G01X55213Y40969D02*
X52457D01*
Y37031D01*
X55213D01*
G01X56787Y63169D02*
X59543D01*
Y59231D01*
X56787D01*
G01X55213Y63169D02*
X52457D01*
Y59231D01*
X55213D01*
G01X56787Y58669D02*
X59543D01*
Y54731D01*
X56787D01*
G01X55213Y58669D02*
X52457D01*
Y54731D01*
X55213D01*
M02*
