G04 ================== begin FILE IDENTIFICATION RECORD ==================*
G04 Layout Name:  C:/Users/abcd/Documents/GitHub/sophum_imu/PCB/sophum_imu.brd*
G04 Film Name:    SILKTOP*
G04 File Format:  Gerber RS274X*
G04 File Origin:  Cadence Allegro 16.6-2015-S066*
G04 Origin Date:  Fri Aug 30 18:03:44 2019*
G04 *
G04 Layer:  REF DES/SILKSCREEN_TOP*
G04 Layer:  PACKAGE GEOMETRY/SILKSCREEN_TOP*
G04 Layer:  BOARD GEOMETRY/SILKSCREEN_TOP*
G04 Layer:  BOARD GEOMETRY/OUTLINE*
G04 *
G04 Offset:    (0.00 0.00)*
G04 Mirror:    No*
G04 Mode:      Positive*
G04 Rotation:  0*
G04 FullContactRelief:  No*
G04 UndefLineWidth:     6.00*
G04 ================== end FILE IDENTIFICATION RECORD ====================*
%FSLAX55Y55*MOIN*%
%IR0*IPPOS*OFA0.00000B0.00000*MIA0B0*SFA1.00000B1.00000*%
%ADD10C,.006*%
%ADD11C,.00591*%
G75*
%LPD*%
G75*
G54D10*
G01X0Y0D02*
Y80000D01*
X80000D01*
Y0D01*
X0D01*
G01X9075Y17922D02*
X5975D01*
X6595Y17462D01*
G01X9075D02*
Y18382D01*
G01X16300Y20496D02*
X18800D01*
Y19830D01*
X18675Y19616D01*
X18508Y19483D01*
X18175Y19430D01*
X17842Y19483D01*
X17633Y19643D01*
X17508Y19830D01*
Y20496D01*
G01Y19830D02*
X16300Y19430D01*
G01Y17763D02*
X18800D01*
X18300Y18083D01*
G01X16300D02*
Y17443D01*
G01X-4024Y39086D02*
X-3774Y39219D01*
X-3607Y39379D01*
X-3524Y39566D01*
X-3607Y39779D01*
X-3774Y39939D01*
X-4024Y40099D01*
X-4357Y40152D01*
X-6024D01*
G01X-3524Y41819D02*
X-6024D01*
X-5524Y41499D01*
G01X-3524D02*
Y42139D01*
G01X16300Y36504D02*
X13800D01*
Y37170D01*
X13925Y37384D01*
X14092Y37517D01*
X14425Y37570D01*
X14758Y37517D01*
X14967Y37357D01*
X15092Y37170D01*
Y36504D01*
G01Y37170D02*
X16300Y37570D01*
G01X14217Y38730D02*
X13967Y38890D01*
X13842Y39077D01*
X13800Y39290D01*
X13883Y39557D01*
X14092Y39744D01*
X14342Y39797D01*
X14592Y39770D01*
X14800Y39664D01*
X15217Y39130D01*
X15508Y38890D01*
X15925Y38730D01*
X16300Y38677D01*
Y39797D01*
G01X74175Y17922D02*
X71075D01*
X71695Y17462D01*
G01X74175D02*
Y18382D01*
G01X61324Y25792D02*
X61164Y25917D01*
X60977Y26000D01*
X60764D01*
X60524Y25875D01*
X60337Y25667D01*
X60204Y25417D01*
X60097Y25000D01*
X60070Y24625D01*
X60124Y24250D01*
X60204Y24000D01*
X60364Y23750D01*
X60550Y23583D01*
X60737Y23500D01*
X60924D01*
X61110Y23583D01*
X61270Y23708D01*
X61404Y23875D01*
G01X63257Y23500D02*
Y26000D01*
X62270Y24208D01*
X63604D01*
G01X46624Y10892D02*
X46464Y11017D01*
X46277Y11100D01*
X46064D01*
X45824Y10975D01*
X45637Y10767D01*
X45504Y10517D01*
X45397Y10100D01*
X45370Y9725D01*
X45424Y9350D01*
X45504Y9100D01*
X45664Y8850D01*
X45850Y8683D01*
X46037Y8600D01*
X46224D01*
X46410Y8683D01*
X46570Y8808D01*
X46704Y8975D01*
G01X47650Y9100D02*
X47810Y8808D01*
X48024Y8642D01*
X48264Y8600D01*
X48477Y8642D01*
X48690Y8850D01*
X48824Y9100D01*
X48850Y9350D01*
X48797Y9642D01*
X48610Y9850D01*
X48424Y9933D01*
X48184D01*
G01X48424D02*
X48584Y10058D01*
X48717Y10267D01*
X48770Y10517D01*
X48717Y10767D01*
X48584Y10975D01*
X48344Y11100D01*
X48104Y11058D01*
X47864Y10892D01*
G01X61324Y16792D02*
X61164Y16917D01*
X60977Y17000D01*
X60764D01*
X60524Y16875D01*
X60337Y16667D01*
X60204Y16417D01*
X60097Y16000D01*
X60070Y15625D01*
X60124Y15250D01*
X60204Y15000D01*
X60364Y14750D01*
X60550Y14583D01*
X60737Y14500D01*
X60924D01*
X61110Y14583D01*
X61270Y14708D01*
X61404Y14875D01*
G01X62350D02*
X62510Y14667D01*
X62697Y14542D01*
X62937Y14500D01*
X63177Y14583D01*
X63364Y14750D01*
X63497Y15042D01*
X63524Y15375D01*
X63470Y15708D01*
X63337Y15917D01*
X63150Y16083D01*
X62964Y16125D01*
X62777Y16083D01*
X62537Y15917D01*
X62617Y17000D01*
X63337D01*
G01X61324Y21292D02*
X61164Y21417D01*
X60977Y21500D01*
X60764D01*
X60524Y21375D01*
X60337Y21167D01*
X60204Y20917D01*
X60097Y20500D01*
X60070Y20125D01*
X60124Y19750D01*
X60204Y19500D01*
X60364Y19250D01*
X60550Y19083D01*
X60737Y19000D01*
X60924D01*
X61110Y19083D01*
X61270Y19208D01*
X61404Y19375D01*
G01X62430Y20042D02*
X62617Y20333D01*
X62777Y20500D01*
X62990Y20583D01*
X63177Y20500D01*
X63310Y20333D01*
X63417Y20083D01*
X63444Y19792D01*
X63417Y19542D01*
X63310Y19292D01*
X63150Y19083D01*
X62964Y19000D01*
X62750Y19083D01*
X62564Y19333D01*
X62457Y19708D01*
X62430Y20125D01*
X62484Y20667D01*
X62564Y20958D01*
X62697Y21250D01*
X62884Y21458D01*
X63070Y21500D01*
X63257Y21417D01*
X63390Y21208D01*
G01X31594Y69224D02*
X33386D01*
X33761Y69331D01*
X34011Y69544D01*
X34094Y69811D01*
X34011Y70078D01*
X33761Y70291D01*
X33386Y70398D01*
X31594D01*
G01X34094Y72011D02*
X31594D01*
X32094Y71691D01*
G01X34094D02*
Y72331D01*
G01X36276Y30974D02*
Y29182D01*
X36383Y28807D01*
X36596Y28557D01*
X36863Y28474D01*
X37130Y28557D01*
X37343Y28807D01*
X37450Y29182D01*
Y30974D01*
G01X38556Y30557D02*
X38716Y30807D01*
X38903Y30932D01*
X39116Y30974D01*
X39383Y30891D01*
X39570Y30682D01*
X39623Y30432D01*
X39596Y30182D01*
X39490Y29974D01*
X38956Y29557D01*
X38716Y29266D01*
X38556Y28849D01*
X38503Y28474D01*
X39623D01*
G01X50374Y39824D02*
X48582D01*
X48207Y39717D01*
X47957Y39504D01*
X47874Y39237D01*
X47957Y38970D01*
X48207Y38757D01*
X48582Y38650D01*
X50374D01*
G01X48374Y37624D02*
X48082Y37464D01*
X47916Y37250D01*
X47874Y37010D01*
X47916Y36797D01*
X48124Y36584D01*
X48374Y36450D01*
X48624Y36424D01*
X48916Y36477D01*
X49124Y36664D01*
X49207Y36850D01*
Y37090D01*
G01Y36850D02*
X49332Y36690D01*
X49541Y36557D01*
X49791Y36504D01*
X50041Y36557D01*
X50249Y36690D01*
X50374Y36930D01*
X50332Y37170D01*
X50166Y37410D01*
G01X61076Y39086D02*
X61326Y39219D01*
X61493Y39379D01*
X61576Y39566D01*
X61493Y39779D01*
X61326Y39939D01*
X61076Y40099D01*
X60743Y40152D01*
X59076D01*
G01X59493Y41312D02*
X59243Y41472D01*
X59118Y41659D01*
X59076Y41872D01*
X59159Y42139D01*
X59368Y42326D01*
X59618Y42379D01*
X59868Y42352D01*
X60076Y42246D01*
X60493Y41712D01*
X60784Y41472D01*
X61201Y41312D01*
X61576Y41259D01*
Y42379D01*
G01X61324Y36792D02*
X61164Y36917D01*
X60977Y37000D01*
X60764D01*
X60524Y36875D01*
X60337Y36667D01*
X60204Y36417D01*
X60097Y36000D01*
X60070Y35625D01*
X60124Y35250D01*
X60204Y35000D01*
X60364Y34750D01*
X60550Y34583D01*
X60737Y34500D01*
X60924D01*
X61110Y34583D01*
X61270Y34708D01*
X61404Y34875D01*
G01X62937Y34500D02*
X63124Y34542D01*
X63337Y34667D01*
X63470Y34875D01*
X63524Y35167D01*
X63470Y35458D01*
X63310Y35708D01*
X63070Y35833D01*
X62804D01*
X62644Y35917D01*
X62510Y36125D01*
X62457Y36417D01*
X62537Y36708D01*
X62724Y36917D01*
X62937Y37000D01*
X63150Y36917D01*
X63337Y36708D01*
X63417Y36417D01*
X63364Y36125D01*
X63230Y35917D01*
X63070Y35833D01*
X62804D01*
X62564Y35708D01*
X62404Y35458D01*
X62350Y35167D01*
X62404Y34875D01*
X62537Y34667D01*
X62750Y34542D01*
X62937Y34500D01*
G01X61324Y41292D02*
X61164Y41417D01*
X60977Y41500D01*
X60764D01*
X60524Y41375D01*
X60337Y41167D01*
X60204Y40917D01*
X60097Y40500D01*
X60070Y40125D01*
X60124Y39750D01*
X60204Y39500D01*
X60364Y39250D01*
X60550Y39083D01*
X60737Y39000D01*
X60924D01*
X61110Y39083D01*
X61270Y39208D01*
X61404Y39375D01*
G01X62884Y39000D02*
X62937Y39542D01*
X63017Y40000D01*
X63124Y40417D01*
X63257Y40875D01*
X63470Y41500D01*
X62404D01*
G01X61324Y63492D02*
X61164Y63617D01*
X60977Y63700D01*
X60764D01*
X60524Y63575D01*
X60337Y63367D01*
X60204Y63117D01*
X60097Y62700D01*
X60070Y62325D01*
X60124Y61950D01*
X60204Y61700D01*
X60364Y61450D01*
X60550Y61283D01*
X60737Y61200D01*
X60924D01*
X61110Y61283D01*
X61270Y61408D01*
X61404Y61575D01*
G01X62430Y63283D02*
X62590Y63533D01*
X62777Y63658D01*
X62990Y63700D01*
X63257Y63617D01*
X63444Y63408D01*
X63497Y63158D01*
X63470Y62908D01*
X63364Y62700D01*
X62830Y62283D01*
X62590Y61992D01*
X62430Y61575D01*
X62377Y61200D01*
X63497D01*
G01X61324Y58992D02*
X61164Y59117D01*
X60977Y59200D01*
X60764D01*
X60524Y59075D01*
X60337Y58867D01*
X60204Y58617D01*
X60097Y58200D01*
X60070Y57825D01*
X60124Y57450D01*
X60204Y57200D01*
X60364Y56950D01*
X60550Y56783D01*
X60737Y56700D01*
X60924D01*
X61110Y56783D01*
X61270Y56908D01*
X61404Y57075D01*
G01X62937Y56700D02*
Y59200D01*
X62617Y58700D01*
G01Y56700D02*
X63257D01*
G54D11*
G01X12421Y20000D02*
Y60000D01*
X2579D01*
Y20000D01*
X12421D01*
G01X18269Y23913D02*
Y21157D01*
X14331D01*
Y23913D01*
G01X18269Y25487D02*
Y28243D01*
X14331D01*
Y25487D01*
G01Y33087D02*
Y35843D01*
X18269D01*
Y33087D01*
G01X14331Y31513D02*
Y28757D01*
X18269D01*
Y31513D01*
G01X34651Y23750D02*
G03I-557J0D01*
G01X35276Y25324D02*
X44724D01*
Y15876D01*
X35276D01*
Y25324D01*
G01X77521Y20000D02*
Y60000D01*
X67679D01*
Y20000D01*
X77521D01*
G01X56787Y25469D02*
X59543D01*
Y21531D01*
X56787D01*
G01X55213Y25469D02*
X52457D01*
Y21531D01*
X55213D01*
G01X42087Y10569D02*
X44843D01*
Y6631D01*
X42087D01*
G01X40513Y10569D02*
X37757D01*
Y6631D01*
X40513D01*
G01X56787Y16469D02*
X59543D01*
Y12531D01*
X56787D01*
G01X55213Y16469D02*
X52457D01*
Y12531D01*
X55213D01*
G01X56787Y20969D02*
X59543D01*
Y17031D01*
X56787D01*
G01X55213Y20969D02*
X52457D01*
Y17031D01*
X55213D01*
G01X34488Y54050D02*
Y51294D01*
X36063D01*
G01X34488Y60350D02*
Y63106D01*
X36063D01*
G01X45512Y60350D02*
Y63106D01*
X43937D01*
G01Y51294D02*
X45512D01*
Y54050D01*
G01X35832Y50113D02*
G03I-556J0D01*
G01X42919Y42006D02*
G03I-557J0D01*
G01X44724Y40824D02*
Y31376D01*
X35276D01*
Y40824D01*
X44724D01*
G01X56787Y36469D02*
X59543D01*
Y32531D01*
X56787D01*
G01X55213Y36469D02*
X52457D01*
Y32531D01*
X55213D01*
G01X56787Y40969D02*
X59543D01*
Y37031D01*
X56787D01*
G01X55213Y40969D02*
X52457D01*
Y37031D01*
X55213D01*
G01X56787Y63169D02*
X59543D01*
Y59231D01*
X56787D01*
G01X55213Y63169D02*
X52457D01*
Y59231D01*
X55213D01*
G01X56787Y58669D02*
X59543D01*
Y54731D01*
X56787D01*
G01X55213Y58669D02*
X52457D01*
Y54731D01*
X55213D01*
M02*
