G04 ================== begin FILE IDENTIFICATION RECORD ==================*
G04 Layout Name:  C:/Users/abcd/Documents/GitHub/sophum_imu/PCB/sophum_imu.brd*
G04 Film Name:    TOP*
G04 File Format:  Gerber RS274X*
G04 File Origin:  Cadence Allegro 16.6-2015-S066*
G04 Origin Date:  Fri Aug 30 19:15:02 2019*
G04 *
G04 Layer:  BOARD GEOMETRY/OUTLINE*
G04 Layer:  ETCH/TOP*
G04 Layer:  PIN/TOP*
G04 Layer:  VIA CLASS/TOP*
G04 *
G04 Offset:    (0.00 0.00)*
G04 Mirror:    No*
G04 Mode:      Positive*
G04 Rotation:  0*
G04 FullContactRelief:  No*
G04 UndefLineWidth:     6.00*
G04 ================== end FILE IDENTIFICATION RECORD ====================*
%FSLAX55Y55*MOIN*%
%IR0*IPPOS*OFA0.00000B0.00000*MIA0B0*SFA1.00000B1.00000*%
%ADD13C,.02165*%
%ADD12C,.06299*%
%ADD10R,.06299X.06299*%
%ADD11R,.02008X.02008*%
%ADD16R,.02008X.02008*%
%ADD18R,.01102X.03465*%
%ADD17R,.03465X.01102*%
%ADD14R,.01024X.01496*%
%ADD15R,.01496X.01024*%
%ADD19C,.01*%
%ADD20C,.02*%
%ADD21C,.006*%
%ADD22C,.07302*%
%ADD23C,.07502*%
%ADD24R,.07502X.07502*%
G75*
%LPD*%
G75*
G36*
G01X2004Y2004D02*
Y77996D01*
X77996D01*
Y2004D01*
X2004D01*
G37*
%LPC*%
G75*
G36*
G01X69073Y49802D02*
X70661Y48214D01*
X70792Y48287D01*
G02X69388Y46937I1809J-3286D01*
G01X68327Y47998D01*
X43032D01*
X42052Y48979D01*
Y49551D01*
X41800D01*
Y54219D01*
X41997D01*
Y56384D01*
X46665D01*
Y56332D01*
X50657D01*
X52126Y57802D01*
X52780D01*
Y58306D01*
X52784D01*
Y59594D01*
X52780D01*
Y61248D01*
X49230Y64798D01*
X44261D01*
X44106Y64643D01*
Y60180D01*
X38003D01*
Y54078D01*
X33860D01*
X33818Y53934D01*
G02X31424Y55895I-1618J466D01*
G03X31457Y56585I-185J355D01*
G02X31420Y59388I915J1414D01*
G03X31354Y60085I-226J330D01*
G02X33712Y61590I674J1543D01*
G01X33710Y61504D01*
X34892Y60322D01*
X35894D01*
Y64850D01*
X40082D01*
Y66062D01*
G02X42660Y67316I902J1422D01*
G03X43340Y66993I398J-40D01*
G01X43349Y67002D01*
X50142D01*
X54338Y62806D01*
X55992D01*
Y59594D01*
X55988D01*
Y58306D01*
X55992D01*
Y55094D01*
X55988D01*
Y53707D01*
X55996Y53679D01*
G02X52776I-1610J-493D01*
G01X52784Y53707D01*
Y54379D01*
G03X52102Y54662I-400J0D01*
G01X51569Y54130D01*
X46665D01*
Y54078D01*
X44106D01*
Y49802D01*
X69073D01*
G37*
G36*
G01X37268Y31926D02*
X37902Y32560D01*
Y34458D01*
X42098D01*
Y31763D01*
G02X39360Y30056I-1114J-1263D01*
G03X38691Y30233I-386J-106D01*
G01X37983Y29526D01*
X37971Y29506D01*
G02X37147Y31972I-1427J894D01*
G01X37268Y31926D01*
G37*
G36*
G01X43894Y16534D02*
Y15894D01*
X44073Y15875D01*
G02X42238Y14470I-173J-1675D01*
G01X42254Y14571D01*
X42090Y14735D01*
Y16534D01*
X41642D01*
Y18760D01*
X44342D01*
Y16534D01*
X43894D01*
G37*
G36*
G01X41292Y6994D02*
X38080D01*
Y10206D01*
X38127D01*
G03X38268Y10547I0J200D01*
G01X38114Y10701D01*
Y16258D01*
X37902D01*
Y16534D01*
X35658D01*
Y16746D01*
X35253D01*
X35209Y16604D01*
G02X32580Y18440I-1609J496D01*
G03X32581Y19076I-242J318D01*
G02X32339Y21521I1025J1336D01*
G03X32038Y22184I-301J263D01*
G01X17906D01*
Y21480D01*
X14694D01*
Y22184D01*
X14123D01*
X12209Y24098D01*
X11251D01*
Y21249D01*
X3749D01*
Y28751D01*
X11251D01*
Y25902D01*
X12955D01*
X14011Y24846D01*
G03X14694Y25129I283J283D01*
G01Y27920D01*
X14698D01*
Y29080D01*
X14694D01*
Y33012D01*
X14123D01*
X13037Y34098D01*
X11144D01*
X11102Y33954D01*
G02Y36046I-3602J1046D01*
G01X11144Y35902D01*
X13783D01*
X14353Y35332D01*
G03X14694Y35474I141J142D01*
G01Y35520D01*
X17906D01*
Y34816D01*
X32901D01*
X35087Y37002D01*
X35658D01*
Y37214D01*
X38358D01*
Y34986D01*
X35621D01*
X33647Y33012D01*
X17906D01*
Y32288D01*
X20879D01*
X20907Y32296D01*
G02Y29076I493J-1610D01*
G01X20879Y29084D01*
X17906D01*
Y29080D01*
X17902D01*
Y27920D01*
X17906D01*
Y23988D01*
X34620D01*
X35087Y24454D01*
X35658D01*
Y24666D01*
X37902D01*
Y24942D01*
X42098D01*
Y24666D01*
X44342D01*
Y24654D01*
X52780D01*
Y25106D01*
X55992D01*
Y21894D01*
X55988D01*
Y20606D01*
X55992D01*
Y17394D01*
X55988D01*
Y16106D01*
X55992D01*
Y12894D01*
X55988D01*
Y11507D01*
X55996Y11479D01*
G02X52776I-1610J-493D01*
G01X52784Y11507D01*
Y12894D01*
X52780D01*
Y16106D01*
X52784D01*
Y17394D01*
X52780D01*
Y17898D01*
X50744D01*
X48160Y20482D01*
X44342D01*
Y20470D01*
X41642D01*
Y22242D01*
X38358D01*
Y18958D01*
X40130D01*
Y16258D01*
X39918D01*
Y11447D01*
X40588Y10777D01*
Y10206D01*
X41292D01*
Y6994D01*
G37*
G36*
G01X55988Y31507D02*
X55996Y31479D01*
G02X52776I-1610J-493D01*
G01X52784Y31507D01*
Y32894D01*
X52780D01*
Y33398D01*
X50244D01*
X46675Y36968D01*
X44342D01*
Y36956D01*
X41642D01*
Y37742D01*
X37902D01*
Y40442D01*
X38114D01*
Y41236D01*
G02X39918Y41240I899J1424D01*
G01Y40442D01*
X40540D01*
X41748Y41650D01*
X47908D01*
X49456Y40102D01*
X52780D01*
Y40606D01*
X55992D01*
Y37394D01*
X55988D01*
Y36106D01*
X55992D01*
Y32894D01*
X55988D01*
Y31507D01*
G37*
G54D22*
X7500Y55000D03*
G54D23*
Y45000D03*
X72600Y55000D03*
Y35000D03*
G54D24*
Y25000D03*
%LPD*%
G75*
G54D10*
X7500Y25000D03*
X72600D03*
G54D20*
G01X7500Y55000D02*
Y58852D01*
G01Y55000D02*
X3648D01*
G01X7500D02*
Y51148D01*
G01Y55000D02*
X11352D01*
G01X16300Y30686D02*
Y26314D01*
G01Y30686D02*
X21400D01*
G01X54386Y14500D02*
Y10986D01*
G01Y14500D02*
Y19000D01*
G01Y23500D02*
Y19000D01*
G01Y61200D02*
Y56700D01*
G01D02*
Y53186D01*
G01Y34500D02*
Y30986D01*
G01Y39000D02*
Y34500D01*
G54D11*
X16300Y23086D03*
Y26314D03*
Y33914D03*
Y30686D03*
G54D21*
G01X0Y0D02*
Y80000D01*
X80000D01*
Y0D01*
X0D01*
G01X16300Y23086D02*
X34993D01*
X35460Y23553D01*
X37008D01*
G01X7500Y25000D02*
X12582D01*
X14496Y23086D01*
X16300D01*
G01Y33914D02*
X33274D01*
X35460Y36100D01*
X37008D01*
G01X7500Y35000D02*
X13410D01*
X14496Y33914D01*
X16300D01*
G01X37008Y17647D02*
X34147D01*
X33600Y17100D01*
G01X39016Y17608D02*
Y11074D01*
X39686Y10404D01*
Y8600D01*
G01X42992Y17647D02*
Y15108D01*
X43900Y14200D01*
G01X72600Y45000D02*
X68700Y48900D01*
X43405D01*
X42953Y49352D01*
Y51885D01*
G01X35669Y55231D02*
X33031D01*
X32200Y54400D01*
G01X39016Y39092D02*
Y42657D01*
X39013Y42660D01*
G01X35669Y57200D02*
X33000D01*
X32400Y57800D01*
Y57971D01*
X32372Y57999D01*
G01X40984Y62515D02*
Y67484D01*
G01Y33108D02*
Y30500D01*
G54D12*
X7500Y55000D03*
Y45000D03*
Y35000D03*
X72600Y55000D03*
Y45000D03*
Y35000D03*
G54D13*
X21400Y30686D03*
X33600Y17100D03*
X43900Y14200D03*
X54386Y10986D03*
X33606Y20412D03*
X32200Y54400D03*
X39013Y42660D03*
X32372Y57999D03*
X40984Y67484D03*
X54386Y53186D03*
Y30986D03*
X32028Y61628D03*
X36544Y30400D03*
X40984Y30500D03*
G54D14*
X39016Y23592D03*
X40984D03*
Y17608D03*
X39016D03*
X40984Y33108D03*
X39016D03*
Y39092D03*
X40984D03*
G54D15*
X42992Y23553D03*
Y21584D03*
Y19616D03*
Y17647D03*
X37008D03*
Y19616D03*
Y21584D03*
Y23553D03*
X42992Y38069D03*
Y36100D03*
Y34131D03*
X37008D03*
Y36100D03*
Y38069D03*
G54D16*
X57614Y23500D03*
X54386D03*
X42914Y8600D03*
X39686D03*
X57614Y14500D03*
X54386D03*
X57614Y19000D03*
X54386D03*
X57614Y34500D03*
X54386D03*
X57614Y39000D03*
X54386D03*
X57614Y61200D03*
X54386D03*
X57614Y56700D03*
X54386D03*
G54D17*
X35669Y55231D03*
Y57200D03*
Y59169D03*
X44331D03*
Y57200D03*
Y55231D03*
G54D18*
X37047Y62515D03*
X39016D03*
X40984D03*
X42953D03*
Y51885D03*
X40984D03*
X39016D03*
X37047D03*
G54D19*
G01X54386Y19000D02*
X51200D01*
X48616Y21584D01*
X42992D01*
G01X33606Y20412D02*
Y20406D01*
X34396Y19616D01*
X37008D01*
G01X42992Y23553D02*
X52329D01*
X52382Y23500D01*
X54386D01*
G01X44331Y55231D02*
X51113D01*
X52582Y56700D01*
X54386D01*
G01Y61200D02*
X49686Y65900D01*
X43805D01*
X42953Y65048D01*
Y62515D01*
G01X54386Y34500D02*
X50700D01*
X47131Y38069D01*
X42992D01*
G01X32028Y61628D02*
X34487Y59169D01*
X35669D01*
G01X39016Y33108D02*
Y32116D01*
X37300Y30400D01*
X36544D01*
G01X40984Y39092D02*
Y39328D01*
X42204Y40548D01*
X47452D01*
X49000Y39000D01*
X54386D01*
M02*
